<?xml version="1.0" encoding="utf-8"?>
<!-- Generator: Adobe Illustrator 17.0.2, SVG Export Plug-In . SVG Version: 6.00 Build 0)  -->
<!DOCTYPE svg PUBLIC "-//W3C//DTD SVG 1.1//EN" "http://www.w3.org/Graphics/SVG/1.1/DTD/svg11.dtd">
<svg version="1.1" id="Layer_2" xmlns="http://www.w3.org/2000/svg" xmlns:xlink="http://www.w3.org/1999/xlink" x="0px" y="0px"
	 width="360px" height="360px" viewBox="0 0 360 360" enable-background="new 0 0 360 360" xml:space="preserve">
<g>
	<path fill="#A5C939" d="M131.199,157.797h96.692v71.398c0,0,0.64,5.763-8.324,9.605h-10.245l-0.961,26.574
		c0,0-0.961,8.324-10.245,8.324c0,0-8.004,0.64-10.566-7.364l-0.64-26.574l-14.728-0.32v26.574c0,0-0.961,7.708-10.566,7.696
		c0,0-9.925-0.973-9.925-8.016l-0.32-26.254l-11.526-0.32c0,0-8.645-4.803-8.645-9.605S131.199,157.797,131.199,157.797z"/>
	<path fill="#A5C939" d="M203.878,114.894l7.524-13.927c0.961-2.401-2.241-2.12-2.241-2.12l-8.164,14.606
		c-19.53-9.285-42.103-0.16-42.103-0.16l-7.684-14.088c-2.081-1.281-2.721,1.281-2.721,1.281l7.364,14.408
		c-24.973,14.728-24.653,38.1-24.653,38.1h97.492C228.211,126.9,203.878,114.894,203.878,114.894z M157.933,136.185
		c-2.387,0-4.322-1.863-4.322-4.162c0-2.299,1.935-4.162,4.322-4.162c2.387,0,4.322,1.863,4.322,4.162
		C162.255,134.322,160.32,136.185,157.933,136.185z M202.373,136.185c-2.387,0-4.322-1.863-4.322-4.162
		c0-2.299,1.935-4.162,4.322-4.162c2.387,0,4.322,1.863,4.322,4.162C206.696,134.322,204.761,136.185,202.373,136.185z"/>
	<path fill="#A5C939" d="M126.439,163.841c0,0,4.36,9.673-4.173,13.877c0,0-8.31,5.395-12.595-1.467
		c-4.074-6.523-26.935-41.49-26.935-41.49s-4.282-8.099,3.699-13.281c0,0,8.868-4.993,14.105,2.486
		C105.778,131.444,126.439,163.841,126.439,163.841z"/>
	<g>
		
			<linearGradient id="SVGID_1_" gradientUnits="userSpaceOnUse" x1="216.8415" y1="208.8683" x2="230.2186" y2="208.8683" gradientTransform="matrix(1.3093 0.1723 -0.1305 0.9915 -40.8617 -41.41)">
			<stop  offset="0.1295" style="stop-color:#603913"/>
			<stop  offset="0.2356" style="stop-color:#462A0E"/>
			<stop  offset="0.3874" style="stop-color:#281808"/>
			<stop  offset="0.536" style="stop-color:#120A03"/>
			<stop  offset="0.6786" style="stop-color:#040301"/>
			<stop  offset="0.8086" style="stop-color:#000000"/>
		</linearGradient>
		
			<linearGradient id="SVGID_2_" gradientUnits="userSpaceOnUse" x1="216.7165" y1="208.8683" x2="230.3436" y2="208.8683" gradientTransform="matrix(1.3093 0.1723 -0.1305 0.9915 -40.8617 -41.41)">
			<stop  offset="0.0268" style="stop-color:#603913"/>
			<stop  offset="0.0494" style="stop-color:#462A0E"/>
			<stop  offset="0.0816" style="stop-color:#281808"/>
			<stop  offset="0.1132" style="stop-color:#120A03"/>
			<stop  offset="0.1435" style="stop-color:#040301"/>
			<stop  offset="0.1711" style="stop-color:#000000"/>
		</linearGradient>
		<path fill="url(#SVGID_1_)" stroke="url(#SVGID_2_)" stroke-width="0.25" stroke-miterlimit="10" d="M241.12,132.475
			c-0.226-0.389-1.182-0.904-1.595-0.829c-0.882,0.159-1.633,0.658-2.418,1.039c-0.142,0.069-0.194,0.24-0.385,0.494
			c0.488-0.086,0.76-0.134,1.123-0.198c-0.11,0.656-0.58,1.041-1.236,1.269c-0.646,0.225-1.574,0.215-1.983,0.575
			c-1.218,1.073-2.271,2.262-3.331,3.437c-0.477,0.529-0.628,1.411-1.264,1.636c-0.893,0.317-0.794,0.903-1.124,1.368
			c-0.118,0.166-0.085,0.399-0.193,0.572c-2.177,3.479-2.271,7.4-2.984,11.181c-0.324,1.716-0.208,3.504-0.304,5.258
			c-0.169,3.073-0.123,6.175-1.326,9.105c-0.083,0.202-0.014,0.448-0.022,0.672c-0.081,2.429-0.107,4.863-0.276,7.283
			c-0.063,0.899-0.538,1.753-0.688,2.649c-0.276,1.648-0.4,3.319-0.681,4.966c-0.345,2.018-0.762,4.025-1.195,6.029
			c-0.27,1.25-0.486,2.525-0.986,3.712c-0.398,0.945-1.344,1.749-0.471,2.87c0.046,0.059,0.034,0.152,0.023,0.225
			c-0.315,2.082-0.572,4.174-0.991,6.238c-0.121,0.596-0.488,1.199-1.336,1.547c-0.26,0.107-0.182,0.751-0.127,1.146
			c0.054,0.384,0.452,0.789,0.396,1.14c-0.313,1.984-0.308,4.036-1.614,5.82c-0.277,0.378-0.265,0.916-0.264,1.387
			c0.001,0.342,0.325,0.71,0.286,1.039c-0.066,0.568-0.349,1.107-0.459,1.672c-0.32,1.64-0.644,3.281-0.878,4.933
			c-0.167,1.18-0.059,2.404-0.319,3.563c-0.213,0.949-0.787,1.832-1.161,2.655c0.156,0.3,0.419,0.593,0.441,0.883
			c0.119,1.554-0.321,3.001-1.114,4.381c-0.246,0.428-0.626,1.029-0.402,1.361c0.359,0.534,0.263,0.967,0.209,1.447
			c-0.086,0.761-0.212,1.517-0.278,2.28c-0.034,0.396,0.248,0.947,0,1.177c-0.853,0.791-0.14,1.602-0.126,2.413
			c0.013,0.774-0.1,1.695-1.312,2.07c0.742,0.474,0.783,0.565,0.554,1.178c-0.266,0.71-0.11,1.464-0.502,2.203
			c-0.391,0.736-0.008,1.728-0.115,2.589c-0.21,1.689-0.531,3.363-0.793,5.045c-0.162,1.039-0.33,2.077-0.438,3.122
			c-0.099,0.954-0.229,1.888-1.005,2.653c-0.066,0.065-0.174,0.183-0.143,0.217c0.887,0.985,0.342,1.962,0.203,2.918
			c-0.191,1.312-0.587,2.596-0.795,3.906c-0.323,2.029-0.586,4.068-0.819,6.109c-0.066,0.58,0.054,1.183,0.101,1.776
			c0.005,0.065,0.088,0.18,0.149,0.189c0.699,0.104,0.44,0.455,0.394,0.743c-0.044,0.277-0.112,0.551-0.169,0.826
			c0.115,0.021,0.229,0.043,0.344,0.065c0.084-0.389,0.181-0.777,0.247-1.169c0.076-0.451,0.115-0.911,1.148-0.792
			c-0.224,0.487-0.428,0.914-0.615,1.347c-0.091,0.211-0.159,0.43-0.206,0.652c-0.003,0.013,0.388,0.134,0.414,0.106
			c0.151-0.17,0.309-0.358,0.351-0.56c0.201-0.975,0.386-1.953,0.54-2.936c0.329-2.103,1.408-4.067,1.282-6.263
			c-0.046-0.803,0.393-1.59,0.555-2.393c0.287-1.428,0.482-2.873,0.82-4.29c0.112-0.469,0.546-0.876,0.897-1.409
			c-0.857-1.167-0.412-3.666,0.902-4.201c-0.82-1.769-0.536-3.374,0.528-3.611c-0.055-0.867-0.243-1.724-0.129-2.54
			c0.159-1.142,0.544-2.246,1.415-3.2c0.19-0.208,0.19-0.667,0.014-0.907c-0.548-0.744-0.379-1.387-0.052-2.087
			c0.322-0.688,0.57-1.413,0.705-2.144c0.143-0.774,0.1-1.578,0.168-2.366c0.039-0.446,0.215-0.787,0.964-0.386
			c0.039-0.096,0.056-0.197,0.116-0.278c0.561-0.752,1.049-1.462,0.069-2.379c-0.35-0.328-0.329-0.898-0.423-1.361
			c-0.203-1.003,0.921-1.777,0.595-2.807c-0.007-0.022,0.015-0.048,0.02-0.072c0.17-0.769,0.376-1.533,0.5-2.31
			c0.146-0.916,0.198-1.845,0.337-2.762c0.074-0.493,0.23-0.981,0.804-0.985c-0.148-0.684-0.451-1.299-0.372-1.862
			c0.249-1.788,0.575-3.57,1.016-5.325c0.125-0.499,0.796-0.877,1.121-1.352c0.224-0.326,0.556-0.876,0.368-1.065
			c-0.821-0.828-0.892-1.652-0.627-2.545c0.215-0.724,0.514-1.442,0.58-2.184c0.176-1.973,1.576-3.668,1.525-5.712
			c-0.031-1.262,0.48-2.498,0.687-3.755c0.301-1.826,0.504-3.667,0.851-5.485c0.081-0.422,0.454-0.924,0.908-1.124
			c0.635-0.279,0.69-0.57,0.448-1.029c-0.532-1.012-0.883-2.03-0.603-3.094c0.383-1.455,0.727-2.919,1.123-4.372
			c0.164-0.603,0.326-1.224,0.659-1.768c0.392-0.641,0.63-1.262,0.482-2.005c-0.094-0.471-0.069-0.959-0.009-1.429
			c0.237-1.863,0.525-3.72,0.765-5.582c0.483-3.75,0.902-7.508,1.432-11.251c0.528-3.726,1.217-7.431,1.727-11.16
			c0.414-3.03,1.362-5.915,2.931-8.644c0.455-0.792,0.971-1.617,1.734-2.223c1.095-0.869,2.36-1.643,3.701-2.29
			c1.883-0.908,2.611-2.131,2.04-3.854C241.867,134.327,241.634,133.358,241.12,132.475z"/>
		<g>
			
				<linearGradient id="SVGID_3_" gradientUnits="userSpaceOnUse" x1="220.1152" y1="155.7561" x2="221.1346" y2="155.7561" gradientTransform="matrix(1.3093 0.1723 -0.1305 0.9915 -40.8617 -41.41)">
				<stop  offset="0.0268" style="stop-color:#603913"/>
				<stop  offset="0.0494" style="stop-color:#462A0E"/>
				<stop  offset="0.0816" style="stop-color:#281808"/>
				<stop  offset="0.1132" style="stop-color:#120A03"/>
				<stop  offset="0.1435" style="stop-color:#040301"/>
				<stop  offset="0.1711" style="stop-color:#000000"/>
			</linearGradient>
			<path fill="#FFFFFF" stroke="url(#SVGID_3_)" stroke-width="0.25" stroke-miterlimit="10" d="M227.471,152.398
				c-0.942-1.22,0.198-1.767,0.739-2.608C228.489,150.816,227.826,151.485,227.471,152.398z"/>
			
				<linearGradient id="SVGID_4_" gradientUnits="userSpaceOnUse" x1="220.5855" y1="149.4947" x2="222.1504" y2="149.4947" gradientTransform="matrix(1.3093 0.1723 -0.1305 0.9915 -40.8617 -41.41)">
				<stop  offset="0.0268" style="stop-color:#603913"/>
				<stop  offset="0.0494" style="stop-color:#462A0E"/>
				<stop  offset="0.0816" style="stop-color:#281808"/>
				<stop  offset="0.1132" style="stop-color:#120A03"/>
				<stop  offset="0.1435" style="stop-color:#040301"/>
				<stop  offset="0.1711" style="stop-color:#000000"/>
			</linearGradient>
			<path fill="#FFFFFF" stroke="url(#SVGID_4_)" stroke-width="0.25" stroke-miterlimit="10" d="M230.622,142.711
				c-1.161,0.679-0.667,1.829-1.121,2.707c-0.262,0.507-0.248,1.107-0.448,1.641c-0.065,0.174-0.417,0.27-0.755,0.47
				c0.414-1.612,0.75-3.035,1.16-4.441c0.105-0.36,0.445-0.669,0.677-1.001c0.117,0.025,0.234,0.051,0.35,0.076
				C230.537,142.351,230.711,142.658,230.622,142.711z"/>
			
				<linearGradient id="SVGID_5_" gradientUnits="userSpaceOnUse" x1="222.3682" y1="144.7309" x2="225.4387" y2="144.7309" gradientTransform="matrix(1.3093 0.1723 -0.1305 0.9915 -40.8617 -41.41)">
				<stop  offset="0.0268" style="stop-color:#603913"/>
				<stop  offset="0.0494" style="stop-color:#462A0E"/>
				<stop  offset="0.0816" style="stop-color:#281808"/>
				<stop  offset="0.1132" style="stop-color:#120A03"/>
				<stop  offset="0.1435" style="stop-color:#040301"/>
				<stop  offset="0.1711" style="stop-color:#000000"/>
			</linearGradient>
			<path fill="#FFFFFF" stroke="url(#SVGID_5_)" stroke-width="0.25" stroke-miterlimit="10" d="M232.24,141.321
				c-0.278-0.468-0.46-0.773-0.613-1.031c0.367-0.192,0.722-0.379,1.085-0.57c0.651,0.214,1.377,0.452,2.333,0.766
				C234.09,140.771,233.198,141.036,232.24,141.321z"/>
			
				<linearGradient id="SVGID_6_" gradientUnits="userSpaceOnUse" x1="224.9977" y1="140.7257" x2="226.452" y2="140.7257" gradientTransform="matrix(1.3093 0.1723 -0.1305 0.9915 -40.8617 -41.41)">
				<stop  offset="0.0268" style="stop-color:#603913"/>
				<stop  offset="0.0494" style="stop-color:#462A0E"/>
				<stop  offset="0.0816" style="stop-color:#281808"/>
				<stop  offset="0.1132" style="stop-color:#120A03"/>
				<stop  offset="0.1435" style="stop-color:#040301"/>
				<stop  offset="0.1711" style="stop-color:#000000"/>
			</linearGradient>
			<path fill="#FFFFFF" stroke="url(#SVGID_6_)" stroke-width="0.25" stroke-miterlimit="10" d="M236.959,137.223
				c-0.424,0.007-0.849,0.015-1.274,0.022c-0.041-0.072-0.082-0.145-0.123-0.217c0.281-0.126,0.546-0.329,0.848-0.349
				c0.191-0.012,0.439,0.25,0.661,0.389C237.033,137.12,236.996,137.172,236.959,137.223z"/>
		</g>
	</g>
	<path fill="#A5C939" d="M232.994,164.944c0,0,4.842-7.371,13.273-2.531c0,0,8.726,5.378,5.179,12.202
		c-3.548,6.824-24.626,42.901-24.626,42.901s-5.252,7.506-13.505,2.769c0,0-8.49-5.612-4.225-13.685
		C213.355,198.526,232.994,164.944,232.994,164.944z"/>
	<g>
		
			<path fill="#10331F" stroke="#1E3D27" stroke-width="0.5" stroke-linecap="round" stroke-linejoin="round" stroke-miterlimit="10" d="
			M169.672,167.588c0,0-9.625-0.25-2.875,3.25s9.812,2.812,9.812,2.812S178.109,170.838,169.672,167.588z"/>
		
			<path fill="#10331F" stroke="#1E3D27" stroke-width="0.5" stroke-linecap="round" stroke-linejoin="round" stroke-miterlimit="10" d="
			M186.388,168.711c0,0-7.942,6.307-0.175,4.511c7.767-1.797,9.787-4.41,9.787-4.41S195.353,165.576,186.388,168.711z"/>
		<g>
			<g>
				<path fill="none" stroke="#1E3D27" stroke-width="0.5" stroke-miterlimit="10" d="M165.152,168.054
					c0,0,3.068,2.274,11.561,3.972c0,0-5.205-4.465-8.547-4.438C168.166,167.588,164.577,167.506,165.152,168.054z"/>
				
					<path fill="#069547" stroke="#1E3D27" stroke-width="0.5" stroke-linecap="round" stroke-linejoin="round" stroke-miterlimit="10" d="
					M177.288,171.615c0,0-6.71-6.739-11.053-5.15c0,0-4.233,0-4.124,4.219c0.11,4.219-1.205,8.328,1.425,10.903
					c0,0,1.739,2.63,6.047,0.822c0,0,4.198-2.52,5.294-3.89s2.411-2.411,2.411-2.411S176.795,172.656,177.288,171.615z
					 M165.152,168.054c-0.575-0.548,3.013-0.466,3.013-0.466c3.342-0.027,8.547,4.438,8.547,4.438
					C168.22,170.328,165.152,168.054,165.152,168.054z"/>
			</g>
			
				<path fill="#069547" stroke="#1E3D27" stroke-width="0.5" stroke-linecap="round" stroke-linejoin="round" stroke-miterlimit="10" d="
				M182.712,171.615c-0.603-0.986-2.712-0.767-2.712-0.767s-2.109-0.219-2.712,0.767c-0.601,0.983,0,4.493,0,4.493
				c0.106,0.902,2.712,0.959,2.712,0.959s2.606-0.057,2.712-0.959C182.712,176.108,183.313,172.598,182.712,171.615z"/>
			
				<path fill="#069547" stroke="#1E3D27" stroke-width="0.5" stroke-linecap="round" stroke-linejoin="round" stroke-miterlimit="10" d="
				M197.889,170.684c0.11-4.219-4.124-4.219-4.124-4.219c-4.343-1.589-11.053,5.15-11.053,5.15c0.493,1.041,0,4.493,0,4.493
				s1.315,1.041,2.411,2.411c1.096,1.37,5.294,3.89,5.294,3.89c4.308,1.808,6.047-0.822,6.047-0.822
				C199.094,179.012,197.779,174.902,197.889,170.684z M194.848,168.054c0,0-3.068,2.274-11.561,3.972c0,0,5.205-4.465,8.547-4.438
				C191.834,167.588,195.423,167.506,194.848,168.054z"/>
		</g>
	</g>
	<g id="SgUDu3_1_">
		<g>
			<path fill="#069547" d="M180.565,190.156c0.225-0.12,0.445-0.254,0.677-0.357c0.652-0.29,1.425-0.158,1.856,0.304
				c0.328,0.352,0.228,0.705,0.116,1.172c-0.101,0.421-0.305,0.566-0.544,0.815c0.065,0.295,0.214,0.648,0.11,1.002
				c-0.122,0.411-0.247,0.729-0.659,0.933c-0.434,0.214-0.854,0.128-1.24-0.132c-0.432-0.292-0.664-0.731-0.848-1.2
				c-0.045-0.115-0.154-0.404-0.208-0.554c-0.071,0.675-0.043,1.185-0.141,1.809c-0.06,0.378-0.096,0.848-0.245,1.202
				c-0.15,0.357-0.454,0.577-0.774,0.307c0.949-0.965,0.965-2.208,0.97-3.453c-0.051,0.223-0.105,0.445-0.152,0.669
				c-0.121,0.575-0.646,1.255-1.074,1.65c-0.101,0.094-0.042,0.039-0.042,0.039c-0.802,0.447-1.663,0.109-1.636-0.806
				c0.009-0.294,0.009-0.506,0.127-0.895c-0.174-0.046-0.224-0.097-0.384-0.169c-0.399-0.179-0.653-0.483-0.692-0.932
				c-0.047-0.542,0.223-0.913,0.675-1.163c0.619-0.343,1.253-0.208,1.884-0.032c0.092,0.026,0.019,0.006,0.183,0.059
				c-0.369-0.312-0.543-0.513-0.766-0.757c-0.485-0.53-0.667-0.964-0.461-1.706c0.154-0.553,0.582-0.931,1.12-0.712
				c0.273,0.111,0.474,0.267,0.756,0.416c0.014-0.018,0.104,0.097,0.126,0.057c0.279-0.508,0.738-0.761,1.19-0.652
				c0.483,0.116,0.853,0.631,0.869,1.191c0.018,0.647-0.271,1.169-0.654,1.656c-0.055,0.07-0.114,0.136-0.172,0.204
				C180.543,190.132,180.554,190.144,180.565,190.156z"/>
		</g>
	</g>
	<g id="SgUDu3_2_">
		<g>
			<path fill="#069547" d="M180.565,207.248c0.225-0.12,0.445-0.254,0.677-0.357c0.652-0.29,1.425-0.158,1.856,0.304
				c0.328,0.352,0.228,0.705,0.116,1.172c-0.101,0.421-0.305,0.566-0.544,0.815c0.065,0.295,0.214,0.648,0.11,1.002
				c-0.122,0.411-0.247,0.729-0.659,0.933c-0.434,0.214-0.854,0.128-1.24-0.132c-0.432-0.292-0.664-0.731-0.848-1.2
				c-0.045-0.115-0.154-0.404-0.208-0.554c-0.071,0.675-0.043,1.185-0.141,1.809c-0.06,0.378-0.096,0.848-0.245,1.202
				c-0.15,0.357-0.454,0.577-0.774,0.307c0.949-0.965,0.965-2.208,0.97-3.453c-0.051,0.223-0.105,0.445-0.152,0.669
				c-0.121,0.575-0.646,1.255-1.074,1.65c-0.101,0.094-0.042,0.039-0.042,0.039c-0.802,0.447-1.663,0.109-1.636-0.806
				c0.009-0.294,0.009-0.506,0.127-0.895c-0.174-0.046-0.224-0.097-0.384-0.169c-0.399-0.179-0.653-0.483-0.692-0.932
				c-0.047-0.542,0.223-0.913,0.675-1.163c0.619-0.343,1.253-0.208,1.884-0.032c0.092,0.026,0.019,0.006,0.183,0.059
				c-0.369-0.312-0.543-0.513-0.766-0.757c-0.485-0.53-0.667-0.964-0.461-1.706c0.154-0.553,0.582-0.931,1.12-0.712
				c0.273,0.111,0.474,0.267,0.756,0.416c0.014-0.018,0.104,0.097,0.126,0.057c0.279-0.508,0.738-0.761,1.19-0.652
				c0.483,0.116,0.853,0.631,0.869,1.191c0.018,0.647-0.271,1.169-0.654,1.656c-0.055,0.07-0.114,0.136-0.172,0.204
				C180.543,207.224,180.554,207.236,180.565,207.248z"/>
		</g>
	</g>
	<g id="SgUDu3_3_">
		<g>
			<path fill="#069547" d="M180.875,224.965c0.225-0.12,0.445-0.254,0.677-0.357c0.652-0.29,1.425-0.158,1.856,0.304
				c0.328,0.352,0.228,0.705,0.116,1.172c-0.101,0.421-0.305,0.566-0.544,0.815c0.065,0.295,0.214,0.648,0.11,1.002
				c-0.122,0.411-0.247,0.729-0.659,0.933c-0.434,0.214-0.854,0.128-1.24-0.132c-0.432-0.292-0.664-0.731-0.848-1.2
				c-0.045-0.115-0.154-0.404-0.208-0.554c-0.071,0.675-0.043,1.185-0.141,1.809c-0.06,0.378-0.096,0.848-0.245,1.202
				c-0.15,0.357-0.454,0.577-0.774,0.307c0.949-0.965,0.965-2.208,0.97-3.453c-0.051,0.223-0.105,0.445-0.152,0.669
				c-0.121,0.575-0.646,1.255-1.074,1.65c-0.101,0.094-0.042,0.039-0.042,0.039c-0.802,0.447-1.663,0.109-1.636-0.806
				c0.009-0.294,0.009-0.506,0.127-0.895c-0.174-0.046-0.224-0.097-0.384-0.169c-0.399-0.179-0.653-0.483-0.692-0.932
				c-0.047-0.542,0.223-0.913,0.675-1.163c0.619-0.343,1.253-0.208,1.884-0.032c0.092,0.026,0.019,0.006,0.183,0.059
				c-0.369-0.312-0.543-0.513-0.766-0.757c-0.485-0.53-0.667-0.964-0.461-1.706c0.154-0.553,0.582-0.931,1.12-0.712
				c0.273,0.111,0.474,0.267,0.756,0.416c0.014-0.018,0.104,0.097,0.126,0.057c0.279-0.508,0.738-0.761,1.19-0.652
				c0.483,0.116,0.853,0.631,0.869,1.191c0.018,0.647-0.271,1.169-0.654,1.656c-0.055,0.07-0.114,0.136-0.172,0.204
				C180.853,224.941,180.864,224.953,180.875,224.965z"/>
		</g>
	</g>
	<g>
		<path fill="#069547" stroke="#24422A" stroke-linecap="round" stroke-linejoin="round" stroke-miterlimit="10" d="M99.338,114.865
			c0,0-8.802-20.02-28.527-30.795c0,0,25.153-3.659,42.219-32.813c0,0,8.347,30.211,19.532,37.787
			C132.562,89.043,127.694,111.365,99.338,114.865z"/>
		<path fill="#069547" stroke="#24422A" stroke-linecap="round" stroke-linejoin="round" stroke-miterlimit="10" d="M132.562,89.043
			c0,0-4.868,22.322-33.224,25.822l-2.189-4.191c0,0-8.601,9.361-5.707,14.3c0,0,4.098,7.219,16.453,1.211
			c0,0,26.125-11.414,33.965-29.803c0,0,4.731-10.003,1.682-13.414c0,0-3.385-4.368-14.966,2.351
			C128.576,85.319,130.597,87.732,132.562,89.043z"/>
		<linearGradient id="SVGID_7_" gradientUnits="userSpaceOnUse" x1="91.2395" y1="96.7422" x2="132.7023" y2="96.7422">
			<stop  offset="0.0268" style="stop-color:#603913"/>
			<stop  offset="0.0494" style="stop-color:#462A0E"/>
			<stop  offset="0.0816" style="stop-color:#281808"/>
			<stop  offset="0.1132" style="stop-color:#120A03"/>
			<stop  offset="0.1435" style="stop-color:#040301"/>
			<stop  offset="0.1711" style="stop-color:#000000"/>
		</linearGradient>
		<path fill="#352823" stroke="url(#SVGID_7_)" stroke-width="0.25" stroke-miterlimit="10" d="M128.576,85.319l-4.501-6.596
			c0,0-5.702,10.282-14.414,15.918c0,0-4.672,5.335-18.199,7.524l1.688,2.281l3.999,6.228l2.189,4.191
			c28.356-3.5,33.224-25.822,33.224-25.822C130.597,87.732,128.576,85.319,128.576,85.319z"/>
		<path fill="#069547" stroke="#24422A" stroke-linecap="round" stroke-linejoin="round" stroke-miterlimit="10" d="M113.03,51.256
			C95.742,80.279,70.811,84.069,70.811,84.069s-4.387-3.211,16.853-18.963c0,0,15.528-12.636,22.825-13.956
			C110.489,51.15,113.638,50.236,113.03,51.256z"/>
		
			<path fill="#FFD540" stroke="#826227" stroke-width="0.5" stroke-linecap="round" stroke-linejoin="round" stroke-miterlimit="10" d="
			M124.669,99.82c0,0-6.599-8.491-8.707-11.203c-2.108-2.712-3.982-0.499-3.982-0.499s-5.661,4.4-8.373,6.508
			c-2.712,2.108-0.617,4.074-0.617,4.074s7.046,9.084,9.059,11.687c1.69,2.186,3.602-0.022,3.602-0.022s6.84-5.316,9.081-7.058
			C126.452,101.969,124.669,99.82,124.669,99.82z M119.18,102.006c-1.297,1.008-4.363,3.391-4.363,3.391s-1.475,1.146-2.299,0.085
			c-0.825-1.062-4.766-6.133-4.766-6.133s-1.113-1.31,0.243-2.364c1.356-1.054,4.54-3.529,4.54-3.529s1.317-0.74,2.508,0.793
			c1.192,1.533,4.583,5.896,4.583,5.896S120.477,100.998,119.18,102.006z"/>
	</g>
</g>
</svg>
